<?xml version="1.0" encoding="iso-8859-1"?>
<!-- Uploaded to: SVG Repo, www.svgrepo.com, Generator: SVG Repo Mixer Tools -->
<svg height="800px" width="800px" version="1.1" id="Layer_1" xmlns="http://www.w3.org/2000/svg" xmlns:xlink="http://www.w3.org/1999/xlink" 
	 viewBox="0 0 392.469 392.469" xml:space="preserve">
<path style="fill:#FFFFFF;" d="M196.267,138.861c-31.677,0-57.406,25.729-57.406,57.406s25.729,57.406,57.406,57.406
	s57.406-25.729,57.406-57.406S227.943,138.861,196.267,138.861z"/>
<path style="fill:#56ACE0;" d="M196.267,231.887c-19.653,0-35.62-15.968-35.62-35.62s15.968-35.62,35.62-35.62
	s35.62,15.968,35.62,35.62S215.919,231.887,196.267,231.887z"/>
<path style="fill:#FFC10D;" d="M370.747,224.388c0-11.572-9.438-21.01-21.01-21.01c-11.572,0-21.01,9.438-21.01,21.01
	s9.438,21.01,21.01,21.01C361.309,245.398,370.747,235.96,370.747,224.388z"/>
<path style="fill:#56ACE0;" d="M86.82,328.727c-11.572,0-21.01,9.438-21.01,21.01c0,11.572,9.438,21.01,21.01,21.01
	s21.01-9.438,21.01-21.01C107.895,338.166,98.457,328.727,86.82,328.727z"/>
<path style="fill:#FFC10D;" d="M53.915,86.045c17.713,0,32.129-14.481,32.129-32.129S71.564,21.786,53.915,21.786
	S21.786,36.267,21.786,53.915C21.786,71.693,36.267,86.045,53.915,86.045z"/>
<path style="fill:#194F82;" d="M349.737,181.592c-16.937,0-31.612,9.891-38.465,24.242l-35.879-6.4
	c0.065-1.099,0.129-2.069,0.129-3.103c0-43.636-35.556-79.192-79.192-79.192c-17.907,0-34.392,6.012-47.709,16.162L99.103,83.717
	c5.624-8.469,8.857-18.683,8.857-29.608C107.83,24.178,83.588,0,53.851,0S0,24.178,0,53.915s24.178,53.915,53.915,53.915
	c10.99,0,21.075-3.297,29.673-8.857l49.519,49.584c-10.02,13.317-16.097,29.737-16.097,47.709c0,22.626,9.568,43.055,24.824,57.471
	l-39.952,55.919c-4.719-1.745-9.826-2.78-15.127-2.78c-23.661,0-42.796,19.265-42.796,42.796c0,23.661,19.265,42.796,42.796,42.796
	c23.661,0,42.796-19.265,42.796-42.796c0-10.408-3.685-19.911-9.891-27.345l39.887-55.919c10.99,5.818,23.402,9.051,36.719,9.051
	c35.103,0,64.905-22.949,75.248-54.626l35.491,6.335c1.487,22.303,20.04,40.016,42.667,40.016c23.661,0,42.796-19.265,42.796-42.796
	C392.533,200.727,373.269,181.592,349.737,181.592z M86.82,370.748c-11.572,0-21.01-9.438-21.01-21.01
	c0-11.572,9.438-21.01,21.01-21.01s21.01,9.438,21.01,21.01C107.895,361.309,98.457,370.748,86.82,370.748z M21.786,53.915
	c0-17.713,14.481-32.129,32.129-32.129s32.129,14.481,32.129,32.129S71.564,86.045,53.915,86.045S21.786,71.693,21.786,53.915z
	 M196.267,253.673c-31.677,0-57.406-25.729-57.406-57.406s25.729-57.406,57.406-57.406s57.406,25.729,57.406,57.406
	S227.943,253.673,196.267,253.673z M349.737,245.398c-11.572,0-21.01-9.438-21.01-21.01s9.438-21.01,21.01-21.01
	c11.572,0,21.01,9.438,21.01,21.01S361.309,245.398,349.737,245.398z M159.547,266.408c10.99,5.818,23.402,9.051,36.719,9.051
	c35.103,0,64.905-22.949,75.248-54.626l35.491,6.335c1.487,22.303,20.04,40.016,42.667,40.016c23.661,0,42.796-19.265,42.796-42.796
	c0-23.661-19.265-42.796-42.796-42.796c-16.937,0-31.612,9.891-38.465,24.242l-35.879-6.4c0.065-1.099,0.129-2.069,0.129-3.103
	c0-43.636-35.556-79.192-79.192-79.192c-17.907,0-34.392,6.012-47.709,16.162L99.038,83.717c5.624-8.469,8.857-18.683,8.857-29.608
	C107.83,24.178,83.653,0,53.851,0S0,24.178,0,53.915s24.178,53.915,53.915,53.915c10.99,0,21.075-3.297,29.673-8.857l49.519,49.584
	c-10.02,13.317-16.097,29.737-16.097,47.709c0,22.626,9.568,43.055,24.824,57.471l-39.952,55.919
	c-4.719-1.745-9.826-2.78-15.127-2.78c-23.661,0-42.796,19.265-42.796,42.796c0,23.661,19.265,42.796,42.796,42.796
	c23.661,0,42.796-19.265,42.796-42.796c0-10.408-3.685-19.911-9.891-27.345 M86.82,370.748c-11.572,0-21.01-9.438-21.01-21.01
	c0-11.572,9.438-21.01,21.01-21.01s21.01,9.438,21.01,21.01C107.895,361.309,98.457,370.748,86.82,370.748z M21.786,53.915
	c0-17.713,14.481-32.129,32.129-32.129s32.129,14.481,32.129,32.129S71.564,86.045,53.915,86.045S21.786,71.693,21.786,53.915z
	 M196.267,253.673c-31.677,0-57.406-25.729-57.406-57.406s25.729-57.406,57.406-57.406s57.406,25.729,57.406,57.406
	S227.943,253.673,196.267,253.673z M349.737,245.398c-11.572,0-21.01-9.438-21.01-21.01s9.438-21.01,21.01-21.01
	c11.572,0,21.01,9.438,21.01,21.01S361.309,245.398,349.737,245.398z"/>
</svg>